<?xml version="1.0" encoding="UTF-8" standalone="no"?>
<!-- Creator: CorelDRAW -->

<svg
   xmlns:dc="http://purl.org/dc/elements/1.1/"
   xmlns:cc="http://creativecommons.org/ns#"
   xmlns:rdf="http://www.w3.org/1999/02/22-rdf-syntax-ns#"
   xmlns:svg="http://www.w3.org/2000/svg"
   xmlns="http://www.w3.org/2000/svg"
   xmlns:sodipodi="http://sodipodi.sourceforge.net/DTD/sodipodi-0.dtd"
   xmlns:inkscape="http://www.inkscape.org/namespaces/inkscape"
   xml:space="preserve"
   width="11in"
   height="8.5in"
   style="shape-rendering:geometricPrecision; text-rendering:geometricPrecision; image-rendering:optimizeQuality; fill-rule:evenodd; clip-rule:evenodd"
   viewBox="0 0 11 8.5"
   id="svg2"
   version="1.1"
   inkscape:version="0.92.3 (2405546, 2018-03-11)"
   sodipodi:docname="ResBaz_vector (copy).svg"><metadata
     id="metadata47"><rdf:RDF><cc:Work
         rdf:about=""><dc:format>image/svg+xml</dc:format><dc:type
           rdf:resource="http://purl.org/dc/dcmitype/StillImage" /><dc:title /></cc:Work></rdf:RDF></metadata><sodipodi:namedview
     pagecolor="#ffffff"
     bordercolor="#666666"
     borderopacity="1"
     objecttolerance="10"
     gridtolerance="10"
     guidetolerance="10"
     inkscape:pageopacity="0"
     inkscape:pageshadow="2"
     inkscape:window-width="1920"
     inkscape:window-height="1022"
     id="namedview45"
     showgrid="false"
     inkscape:zoom="0.61699345"
     inkscape:cx="211.31351"
     inkscape:cy="317.64254"
     inkscape:window-x="352"
     inkscape:window-y="1440"
     inkscape:window-maximized="1"
     inkscape:current-layer="svg2" /><defs
     id="defs4"><style
       type="text/css"
       id="style6">
    .fil1 {fill:#004087}
    .fil2 {fill:#FF6700}
    .fil0 {fill:white}
    .fil3 {fill:#004087;fill-rule:nonzero}
    .fil5 {fill:#666666;fill-rule:nonzero}
    .fil4 {fill:#FF6700;fill-rule:nonzero}
   </style><clipPath
       id="id0"><rect
         x="2.04408"
         y="5.12226"
         width="1.69644"
         height="0.124839"
         id="rect9" /></clipPath></defs><g
     id="Layer_x0020_2"><metadata
       id="CorelCorpID_1Corel-Layer" /></g><g
     id="g3739"
     transform="matrix(4.4710964,0,0,4.5343036,-9.7313466,-13.751656)"><path
       inkscape:connector-curvature="0"
       style="clip-rule:evenodd;fill:#00779c;fill-opacity:1;fill-rule:evenodd;image-rendering:optimizeQuality;shape-rendering:geometricPrecision;text-rendering:geometricPrecision"
       id="path17"
       d="m 4.1234913,3.4783152 0.51035,-0.143665 -1.13333,-0.296626 -1.13893,0.30222 0.288252,0.069874 c -0.158012,0.130075 -0.294441,0.29252 -0.377799,0.534571 l -0.094445,0.11963 0.150685,0.00909 -0.00867,-0.123126 c 0.090457,-0.225413 0.226035,-0.40302 0.38365,-0.52722 l 0.175402,0.042516 c -0.05652,0.059803 -0.104437,0.127819 -0.141772,0.202067 h 0.154193 c 0.126437,-0.200323 0.34976,-0.333417 0.604102,-0.333417 0.254346,0 0.477665,0.133094 0.604102,0.333417 h 0.154193 c -0.034709,-0.069031 -0.078567,-0.132673 -0.12998,-0.189335 z"
       class="fil1" /><path
       sodipodi:nodetypes="cscssccsssccssscscscsccsscscscccsscsccc"
       class="fil2"
       d="m 3.1581833,4.1310352 c -0.025713,0.019661 -0.057846,0.03135 -0.092705,0.03135 -0.034862,0 -0.066996,-0.011689 -0.092705,-0.03135 h -0.020177 c -0.033118,0 -0.060209,0.027087 -0.060209,0.060201 v 0.176268 c 0.071776,0.135154 0.187689,0.243307 0.328496,0.30524 0.010909,-0.010909 0.017681,-0.025957 0.017681,-0.042512 v -0.438996 c 0,-0.033114 -0.027091,-0.060201 -0.060201,-0.060201 h -0.020181 z m 0.036071,-0.12139 c 0,-0.071114 -0.057665,-0.128776 -0.128776,-0.128776 -0.071106,0 -0.12878,0.057661 -0.12878,0.128776 0,0.056 0.035764,0.103661 0.085689,0.12139 0.013472,0.00479 0.027972,0.00739 0.043091,0.00739 0.015114,0 0.029614,-0.0026 0.043091,-0.00739 0.049929,-0.017728 0.085685,-0.06539 0.085685,-0.12139 z m 0.572917,0.181591 v 0.438996 c 0,0.014189 0.00497,0.02726 0.013256,0.037583 0.146307,-0.067472 0.264681,-0.185244 0.332925,-0.331122 v -0.145457 c 0,-0.033114 -0.027095,-0.060201 -0.060201,-0.060201 h -0.020185 c -0.025713,0.019661 -0.05785,0.03135 -0.092705,0.03135 -0.034862,0 -0.067,-0.011689 -0.092705,-0.03135 h -0.020185 c -0.033106,0 -0.060201,0.027087 -0.0602,0.060201 z m 0.3018739,-0.181591 c 0,-0.071114 -0.057673,-0.128776 -0.128783,-0.128776 -0.07111,0 -0.128783,0.057661 -0.128783,0.128776 0,0.056 0.035764,0.103661 0.085693,0.12139 0.013469,0.00479 0.02798,0.00739 0.043091,0.00739 0.01511,0 0.029614,-0.0026 0.043091,-0.00739 0.049925,-0.017728 0.085693,-0.06539 0.085693,-0.12139 z"
       id="path21"
       inkscape:connector-curvature="0"
       style="fill:#ff6700" /><g
       transform="translate(0.60287128,-0.21488481)"
       id="Layer_x0020_5"><metadata
         id="CorelCorpID_4Corel-Layer" /><path
         inkscape:connector-curvature="0"
         style="fill:#00779c;fill-opacity:1"
         id="path31"
         d="m 3.07154,4.13859 c 0,-0.094264 -0.076441,-0.170701 -0.170701,-0.170701 -0.094256,0 -0.170697,0.076437 -0.170697,0.170701 0,0.074221 0.047405,0.137402 0.113583,0.160902 0.017858,0.00634 0.037087,0.0098 0.057114,0.0098 0.020035,0 0.039264,-0.00346 0.057122,-0.0098 C 3.024138,4.275992 3.07154,4.212811 3.07154,4.13859 Z M 2.67141,4.379291 v 0.529181 c 0.069279,0.023709 0.143591,0.036583 0.220894,0.036583 0.083697,0 0.163878,-0.015087 0.237972,-0.042685 V 4.379291 c 0,-0.043886 -0.035913,-0.079799 -0.079803,-0.079799 H 3.023725 C 2.989646,4.325559 2.947048,4.341051 2.900839,4.341051 2.854634,4.341051 2.812036,4.325559 2.777961,4.299492 H 2.751209 c -0.043886,0 -0.079799,0.035913 -0.079799,0.079799 z"
         class="fil1" /></g><path
       sodipodi:nodetypes="csssccsssccc"
       style="fill:#00779c;fill-opacity:1"
       inkscape:connector-curvature="0"
       id="path3848"
       d="m 2.6775613,3.8310434 c -0.019945,0.072114 -0.030598,0.148071 -0.030598,0.226524 0,0.468378 0.379839,0.848217 0.84822,0.848217 0.468378,0 0.848217,-0.379839 0.848217,-0.848217 0,-0.078453 -0.010658,-0.154409 -0.030602,-0.226524 h -0.140476 c 0.023807,0.071177 0.036705,0.147343 0.036705,0.226524 0,0.394181 -0.319665,0.713843 -0.713843,0.713843 -0.394185,0 -0.71385,-0.319661 -0.71385,-0.713843 0,-0.079181 0.012898,-0.155346 0.036705,-0.226524 h -0.140476 z"
       class="fil2" /></g></svg>